<svg width="295" height="31" viewBox="0 0 295 31" fill="none" xmlns="http://www.w3.org/2000/svg">
<g clip-path="url(#clip0_29_300)">
<path d="M0 0.706909H4.22659V30.2931H0V0.706909ZM6.64108 30.2931V26.0665H16.2044V30.2931H6.64108Z" fill="white"/>
<path d="M45.7258 30.2931H41.1458L38.2832 23.9507H38.2683L31.6322 9.33435L24.9961 23.9507H24.9812L22.1186 30.2931H17.5386L31.6322 0L45.7258 30.2931Z" fill="white"/>
<path d="M51.222 10.6685L54.4579 16.7969L52.2874 30.2981H47.9712L51.222 10.6685ZM77.179 6.73567L64.5241 31L51.8792 6.69584L52.9893 0L64.5241 22.3676L76.0638 0L77.179 6.73567ZM81.082 30.2981H76.7658L74.5903 16.762L77.8112 10.5491L81.082 30.2981Z" fill="white"/>
<path d="M101.06 0.706909V4.9335H84.1536V0.706909H101.06ZM84.1536 17.6183V13.4514H98.9491V17.6183H84.1536ZM88.3802 26.0714H101.06V30.298H84.1536V26.0565H88.3802V26.0714Z" fill="white"/>
<path d="M105.59 30.2931V0.706909H109.817V30.2931H105.59Z" fill="white"/>
<path d="M136.904 30.2931H131.97L124.617 20.0776H119.992V30.2931H115.766V15.851H126.29C129.372 15.851 131.97 14.2629 131.97 10.4345C131.97 6.60622 129.461 4.92852 126.38 4.92852H115.766V0.706909H124.926C132.632 0.706909 136.197 4.58004 136.197 10.1757C136.197 14.7557 133.688 18.4994 129.282 19.6843L136.899 30.298L136.904 30.2931Z" fill="white"/>
<path d="M167.431 30.2931H162.851L159.988 23.9507H159.973L153.337 9.33435L146.701 23.9507H146.686L143.824 30.2931H139.244L153.342 0L167.436 30.2931H167.431Z" fill="white"/>
<path d="M192.367 21.6209C192.367 26.7734 188.096 30.6466 181.181 30.6466C174.266 30.6466 170.264 26.3752 169.82 25.8475L171.931 22.059C174.396 24.7871 177.791 26.42 181.266 26.42C185.711 26.42 188.136 24.6128 188.136 21.7951C188.136 19.4155 185.452 17.9618 181.4 17.2599C173.166 15.851 170.831 12.8989 170.831 8.93611C170.831 4.13701 174.575 0.348511 181.485 0.348511C182.719 0.348511 187.384 0.482926 191.038 3.87316L189.012 7.70647C187.469 6.20799 185.094 4.58008 181.395 4.58008C177.343 4.58008 175.053 6.12336 175.053 8.76187C175.053 11.0519 177.079 12.1073 181.744 13.0333C188.788 14.3973 192.357 16.6426 192.357 21.6209H192.367Z" fill="white"/>
<path d="M209.139 0.706909H213.366V30.2931H209.139V0.706909ZM215.78 30.298V26.0714H225.344V30.298H215.78Z" fill="white"/>
<path d="M244.396 0.706909V4.9335H227.489V0.706909H244.396ZM227.489 17.6183V13.4514H242.285V17.6183H227.489ZM231.716 26.0714H244.396V30.298H227.489V26.0565H231.716V26.0714Z" fill="white"/>
<path d="M274.4 30.2931H269.82L266.957 23.9507H266.943L260.306 9.33435L253.67 23.9507H253.655L250.793 30.2931H246.213L260.311 0L274.405 30.2931H274.4Z" fill="white"/>
<path d="M278.358 0.706909H282.584V30.2931H278.358V0.706909ZM284.999 30.298V26.0714H294.562V30.298H284.999Z" fill="white"/>
</g>
<defs>
<clipPath id="clip0_29_300">
<rect width="294.562" height="31" fill="white"/>
</clipPath>
</defs>
</svg>

