<svg width="712" height="207" viewBox="0 0 712 207" fill="none" xmlns="http://www.w3.org/2000/svg">
<rect x="148" y="174" width="261" height="15" fill="#46999E"/>
<rect x="461" y="174" width="232" height="15" fill="#46999E"/>
<path d="M24.518 42.352C24.518 43.9467 24.1347 45.434 23.368 46.814C22.6013 48.1633 21.436 49.252 19.872 50.08C18.308 50.908 16.3913 51.322 14.122 51.322C11.914 51.322 9.936 50.9387 8.188 50.172C6.44 49.3747 5.04467 48.2707 4.002 46.86C2.95933 45.4493 2.36133 43.824 2.208 41.984H7.82C7.97333 43.3947 8.57133 44.606 9.614 45.618C10.6873 46.63 12.1133 47.136 13.892 47.136C15.4867 47.136 16.7133 46.7067 17.572 45.848C18.4613 44.9893 18.906 43.8853 18.906 42.536C18.906 41.3707 18.584 40.42 17.94 39.684C17.296 38.9173 16.4987 38.3193 15.548 37.89C14.5973 37.4607 13.294 36.97 11.638 36.418C9.614 35.774 7.958 35.13 6.67 34.486C5.41267 33.842 4.33933 32.9067 3.45 31.68C2.56067 30.4533 2.116 28.8433 2.116 26.85C2.116 25.102 2.54533 23.5687 3.404 22.25C4.26267 20.9313 5.48933 19.9193 7.084 19.214C8.67867 18.478 10.5187 18.11 12.604 18.11C15.916 18.11 18.538 18.9073 20.47 20.502C22.4327 22.0967 23.552 24.182 23.828 26.758H18.17C17.9553 25.5313 17.3727 24.4887 16.422 23.63C15.502 22.7407 14.2293 22.296 12.604 22.296C11.132 22.296 9.95133 22.6793 9.062 23.446C8.17267 24.182 7.728 25.2553 7.728 26.666C7.728 27.77 8.03467 28.69 8.648 29.426C9.26133 30.1313 10.028 30.6987 10.948 31.128C11.8987 31.5267 13.1867 32.002 14.812 32.554C16.8667 33.198 18.538 33.8573 19.826 34.532C21.1447 35.176 22.2487 36.1267 23.138 37.384C24.058 38.6413 24.518 40.2973 24.518 42.352ZM53.3198 37.108C53.3198 37.9667 53.2584 38.718 53.1358 39.362H33.6318C33.7238 41.9687 34.4444 43.9007 35.7938 45.158C37.1431 46.4153 38.8144 47.044 40.8078 47.044C42.5558 47.044 44.0278 46.5993 45.2238 45.71C46.4504 44.8207 47.2018 43.64 47.4778 42.168H53.0898C52.7524 43.9467 52.0471 45.526 50.9738 46.906C49.9004 48.286 48.5051 49.3747 46.7878 50.172C45.0704 50.9387 43.1538 51.322 41.0378 51.322C38.5844 51.322 36.4071 50.8007 34.5058 49.758C32.6351 48.7153 31.1631 47.2127 30.0898 45.25C29.0164 43.2873 28.4798 40.972 28.4798 38.304C28.4798 35.6667 29.0164 33.3667 30.0898 31.404C31.1631 29.4413 32.6351 27.9387 34.5058 26.896C36.4071 25.8533 38.5844 25.332 41.0378 25.332C43.5218 25.332 45.6838 25.8533 47.5238 26.896C49.3944 27.908 50.8204 29.3187 51.8018 31.128C52.8138 32.9067 53.3198 34.9 53.3198 37.108ZM48.0298 36.97C48.0911 35.314 47.7998 33.934 47.1558 32.83C46.5424 31.6953 45.6838 30.8673 44.5798 30.346C43.5064 29.794 42.3258 29.518 41.0378 29.518C38.9831 29.518 37.2658 30.1467 35.8858 31.404C34.5058 32.6613 33.7544 34.5167 33.6318 36.97H48.0298ZM63.627 30.622C64.4857 28.966 65.7123 27.6627 67.307 26.712C68.9017 25.7307 70.7417 25.24 72.827 25.24V30.944H71.263C68.963 30.944 67.1077 31.5113 65.697 32.646C64.317 33.75 63.627 35.59 63.627 38.166V51H58.383V25.654H63.627V30.622ZM87.152 45.572L94.328 25.654H99.94L90.28 51H83.932L74.272 25.654H79.884L87.152 45.572ZM103.063 18.294C103.063 17.4047 103.37 16.6687 103.983 16.086C104.596 15.5033 105.409 15.212 106.421 15.212C107.433 15.212 108.246 15.5033 108.859 16.086C109.503 16.6687 109.825 17.4047 109.825 18.294C109.825 19.1833 109.503 19.904 108.859 20.456C108.246 21.008 107.433 21.284 106.421 21.284C105.409 21.284 104.596 21.008 103.983 20.456C103.37 19.904 103.063 19.1833 103.063 18.294ZM109.043 25.654V51H103.799V25.654H109.043ZM126.659 25.332C129.94 25.332 132.654 26.206 134.801 27.954C136.948 29.6713 138.282 32.0173 138.803 34.992H133.237C132.93 33.3973 132.179 32.1553 130.983 31.266C129.818 30.346 128.346 29.886 126.567 29.886C124.543 29.886 122.856 30.6067 121.507 32.048C120.158 33.4587 119.483 35.544 119.483 38.304C119.483 41.064 120.158 43.1647 121.507 44.606C122.856 46.0473 124.543 46.768 126.567 46.768C128.346 46.768 129.818 46.308 130.983 45.388C132.179 44.468 132.93 43.2107 133.237 41.616H138.803C138.282 44.5907 136.948 46.952 134.801 48.7C132.654 50.448 129.94 51.322 126.659 51.322C124.206 51.322 122.028 50.8007 120.127 49.758C118.256 48.7153 116.784 47.2127 115.711 45.25C114.638 43.2873 114.101 40.972 114.101 38.304C114.101 35.6667 114.638 33.3667 115.711 31.404C116.784 29.4413 118.256 27.9387 120.127 26.896C122.028 25.8533 124.206 25.332 126.659 25.332ZM127.349 53.76C129.036 53.6987 130.431 54.036 131.535 54.772C132.67 55.5387 133.237 56.7193 133.237 58.314C133.237 59.878 132.685 61.0587 131.581 61.856C130.508 62.6533 129.128 63.052 127.441 63.052H122.151V60.108H126.843C128.683 60.108 129.603 59.464 129.603 58.176C129.603 57.624 129.373 57.1793 128.913 56.842C128.484 56.5047 127.794 56.336 126.843 56.336H124.129V50.678H127.349V53.76ZM155.461 25.332C157.915 25.332 160.123 25.8533 162.085 26.896C164.048 27.9387 165.581 29.4413 166.685 31.404C167.789 33.3667 168.341 35.6667 168.341 38.304C168.341 40.972 167.789 43.2873 166.685 45.25C165.581 47.2127 164.048 48.7153 162.085 49.758C160.123 50.8007 157.915 51.322 155.461 51.322C153.008 51.322 150.8 50.8007 148.837 49.758C146.905 48.7153 145.372 47.2127 144.237 45.25C143.133 43.2567 142.581 40.9413 142.581 38.304C142.581 35.6667 143.133 33.3667 144.237 31.404C145.372 29.4413 146.905 27.9387 148.837 26.896C150.8 25.8533 153.008 25.332 155.461 25.332ZM155.461 29.886C154.112 29.886 152.87 30.1927 151.735 30.806C150.601 31.4193 149.681 32.37 148.975 33.658C148.301 34.9153 147.963 36.464 147.963 38.304C147.963 40.1747 148.301 41.7387 148.975 42.996C149.681 44.2533 150.601 45.1887 151.735 45.802C152.87 46.4153 154.112 46.722 155.461 46.722C156.811 46.722 158.053 46.4153 159.187 45.802C160.322 45.1887 161.227 44.2533 161.901 42.996C162.607 41.7387 162.959 40.1747 162.959 38.304C162.959 36.464 162.607 34.9153 161.901 33.658C161.227 32.37 160.322 31.4193 159.187 30.806C158.053 30.1927 156.811 29.886 155.461 29.886ZM194.33 25.332C196.63 25.332 198.593 25.8993 200.218 27.034C201.844 28.1687 202.978 29.6713 203.622 31.542V16.96H208.912V51H203.622V45.112C202.978 46.9827 201.844 48.4853 200.218 49.62C198.593 50.7547 196.63 51.322 194.33 51.322C192.122 51.322 190.144 50.8007 188.396 49.758C186.679 48.7153 185.33 47.2127 184.348 45.25C183.367 43.2873 182.876 40.972 182.876 38.304C182.876 35.6667 183.367 33.3667 184.348 31.404C185.33 29.4413 186.679 27.9387 188.396 26.896C190.144 25.8533 192.122 25.332 194.33 25.332ZM195.94 29.932C193.61 29.932 191.739 30.6833 190.328 32.186C188.948 33.658 188.258 35.6973 188.258 38.304C188.258 40.9107 188.948 42.9653 190.328 44.468C191.739 45.94 193.61 46.676 195.94 46.676C197.412 46.676 198.731 46.3387 199.896 45.664C201.062 44.9587 201.982 43.9773 202.656 42.72C203.331 41.4627 203.668 39.9907 203.668 38.304C203.668 36.648 203.331 35.1913 202.656 33.934C201.982 32.646 201.062 31.6647 199.896 30.99C198.731 30.2847 197.412 29.932 195.94 29.932ZM238.757 37.108C238.757 37.9667 238.696 38.718 238.573 39.362H219.069C219.161 41.9687 219.882 43.9007 221.231 45.158C222.581 46.4153 224.252 47.044 226.245 47.044C227.993 47.044 229.465 46.5993 230.661 45.71C231.888 44.8207 232.639 43.64 232.915 42.168H238.527C238.19 43.9467 237.485 45.526 236.411 46.906C235.338 48.286 233.943 49.3747 232.225 50.172C230.508 50.9387 228.591 51.322 226.475 51.322C224.022 51.322 221.845 50.8007 219.943 49.758C218.073 48.7153 216.601 47.2127 215.527 45.25C214.454 43.2873 213.917 40.972 213.917 38.304C213.917 35.6667 214.454 33.3667 215.527 31.404C216.601 29.4413 218.073 27.9387 219.943 26.896C221.845 25.8533 224.022 25.332 226.475 25.332C228.959 25.332 231.121 25.8533 232.961 26.896C234.832 27.908 236.258 29.3187 237.239 31.128C238.251 32.9067 238.757 34.9 238.757 37.108ZM233.467 36.97C233.529 35.314 233.237 33.934 232.593 32.83C231.98 31.6953 231.121 30.8673 230.017 30.346C228.944 29.794 227.763 29.518 226.475 29.518C224.421 29.518 222.703 30.1467 221.323 31.404C219.943 32.6613 219.192 34.5167 219.069 36.97H233.467ZM265.872 25.332C269.153 25.332 271.867 26.206 274.014 27.954C276.16 29.6713 277.494 32.0173 278.016 34.992H272.45C272.143 33.3973 271.392 32.1553 270.196 31.266C269.03 30.346 267.558 29.886 265.78 29.886C263.756 29.886 262.069 30.6067 260.72 32.048C259.37 33.4587 258.696 35.544 258.696 38.304C258.696 41.064 259.37 43.1647 260.72 44.606C262.069 46.0473 263.756 46.768 265.78 46.768C267.558 46.768 269.03 46.308 270.196 45.388C271.392 44.468 272.143 43.2107 272.45 41.616H278.016C277.494 44.5907 276.16 46.952 274.014 48.7C271.867 50.448 269.153 51.322 265.872 51.322C263.418 51.322 261.241 50.8007 259.34 49.758C257.469 48.7153 255.997 47.2127 254.924 45.25C253.85 43.2873 253.314 40.972 253.314 38.304C253.314 35.6667 253.85 33.3667 254.924 31.404C255.997 29.4413 257.469 27.9387 259.34 26.896C261.241 25.8533 263.418 25.332 265.872 25.332ZM294.674 25.332C297.128 25.332 299.336 25.8533 301.298 26.896C303.261 27.9387 304.794 29.4413 305.898 31.404C307.002 33.3667 307.554 35.6667 307.554 38.304C307.554 40.972 307.002 43.2873 305.898 45.25C304.794 47.2127 303.261 48.7153 301.298 49.758C299.336 50.8007 297.128 51.322 294.674 51.322C292.221 51.322 290.013 50.8007 288.05 49.758C286.118 48.7153 284.585 47.2127 283.45 45.25C282.346 43.2567 281.794 40.9413 281.794 38.304C281.794 35.6667 282.346 33.3667 283.45 31.404C284.585 29.4413 286.118 27.9387 288.05 26.896C290.013 25.8533 292.221 25.332 294.674 25.332ZM294.674 29.886C293.325 29.886 292.083 30.1927 290.948 30.806C289.814 31.4193 288.894 32.37 288.188 33.658C287.514 34.9153 287.176 36.464 287.176 38.304C287.176 40.1747 287.514 41.7387 288.188 42.996C288.894 44.2533 289.814 45.1887 290.948 45.802C292.083 46.4153 293.325 46.722 294.674 46.722C296.024 46.722 297.266 46.4153 298.4 45.802C299.535 45.1887 300.44 44.2533 301.114 42.996C301.82 41.7387 302.172 40.1747 302.172 38.304C302.172 36.464 301.82 34.9153 301.114 33.658C300.44 32.37 299.535 31.4193 298.4 30.806C297.266 30.1927 296.024 29.886 294.674 29.886ZM326.764 25.24C329.708 25.24 332.069 26.1907 333.848 28.092C335.627 29.9933 336.516 32.7073 336.516 36.234V51H331.272V36.786C331.272 34.5167 330.689 32.7687 329.524 31.542C328.359 30.2847 326.764 29.656 324.74 29.656C322.655 29.656 320.983 30.3307 319.726 31.68C318.469 32.9987 317.84 34.946 317.84 37.522V51H312.596V25.654H317.84V31.22C318.515 29.3187 319.649 27.8467 321.244 26.804C322.839 25.7613 324.679 25.24 326.764 25.24ZM355.391 46.446V51H352.171C349.472 51 347.417 50.356 346.007 49.068C344.627 47.7493 343.937 45.572 343.937 42.536V30.116H340.303V25.654H343.937V19.352H349.227V25.654H355.345V30.116H349.227V42.628C349.227 44.0693 349.487 45.066 350.009 45.618C350.561 46.17 351.511 46.446 352.861 46.446H355.391ZM370.469 25.332C372.769 25.332 374.732 25.8993 376.357 27.034C377.982 28.1687 379.132 29.6713 379.807 31.542V25.654H385.051V51H379.807V45.112C379.132 46.9827 377.982 48.4853 376.357 49.62C374.732 50.7547 372.769 51.322 370.469 51.322C368.261 51.322 366.283 50.8007 364.535 49.758C362.818 48.7153 361.468 47.2127 360.487 45.25C359.506 43.2873 359.015 40.972 359.015 38.304C359.015 35.6667 359.506 33.3667 360.487 31.404C361.468 29.4413 362.818 27.9387 364.535 26.896C366.283 25.8533 368.261 25.332 370.469 25.332ZM372.079 29.932C369.748 29.932 367.878 30.6833 366.467 32.186C365.087 33.658 364.397 35.6973 364.397 38.304C364.397 40.9107 365.087 42.9653 366.467 44.468C367.878 45.94 369.748 46.676 372.079 46.676C373.551 46.676 374.87 46.3387 376.035 45.664C377.2 44.9587 378.12 43.9773 378.795 42.72C379.47 41.4627 379.807 39.9907 379.807 38.304C379.807 36.648 379.47 35.1913 378.795 33.934C378.12 32.646 377.2 31.6647 376.035 30.99C374.87 30.2847 373.551 29.932 372.079 29.932ZM405.88 25.332C408.088 25.332 410.051 25.8533 411.768 26.896C413.516 27.9387 414.881 29.4413 415.862 31.404C416.843 33.3667 417.334 35.6667 417.334 38.304C417.334 40.972 416.843 43.2873 415.862 45.25C414.881 47.2127 413.516 48.7153 411.768 49.758C410.051 50.8007 408.088 51.322 405.88 51.322C403.58 51.322 401.617 50.7547 399.992 49.62C398.367 48.4853 397.232 46.9827 396.588 45.112V51H391.344V16.96H396.588V31.542C397.232 29.6713 398.367 28.1687 399.992 27.034C401.617 25.8993 403.58 25.332 405.88 25.332ZM404.27 29.932C402.798 29.932 401.479 30.2847 400.314 30.99C399.149 31.6647 398.229 32.646 397.554 33.934C396.879 35.1913 396.542 36.648 396.542 38.304C396.542 39.9907 396.879 41.4627 397.554 42.72C398.229 43.9773 399.149 44.9587 400.314 45.664C401.479 46.3387 402.798 46.676 404.27 46.676C406.601 46.676 408.471 45.94 409.882 44.468C411.293 42.9653 411.998 40.9107 411.998 38.304C411.998 35.728 411.293 33.6887 409.882 32.186C408.471 30.6833 406.601 29.932 404.27 29.932ZM421.649 18.294C421.649 17.4047 421.956 16.6687 422.569 16.086C423.182 15.5033 423.995 15.212 425.007 15.212C426.019 15.212 426.832 15.5033 427.445 16.086C428.089 16.6687 428.411 17.4047 428.411 18.294C428.411 19.1833 428.089 19.904 427.445 20.456C426.832 21.008 426.019 21.284 425.007 21.284C423.995 21.284 423.182 21.008 422.569 20.456C421.956 19.904 421.649 19.1833 421.649 18.294ZM427.629 25.654V51H422.385V25.654H427.629ZM439.219 16.96V51H433.975V16.96H439.219ZM444.829 18.294C444.829 17.4047 445.135 16.6687 445.749 16.086C446.362 15.5033 447.175 15.212 448.187 15.212C449.199 15.212 450.011 15.5033 450.625 16.086C451.269 16.6687 451.591 17.4047 451.591 18.294C451.591 19.1833 451.269 19.904 450.625 20.456C450.011 21.008 449.199 21.284 448.187 21.284C447.175 21.284 446.362 21.008 445.749 20.456C445.135 19.904 444.829 19.1833 444.829 18.294ZM450.809 25.654V51H445.565V25.654H450.809ZM467.32 25.332C469.62 25.332 471.583 25.8993 473.208 27.034C474.834 28.1687 475.968 29.6713 476.612 31.542V16.96H481.902V51H476.612V45.112C475.968 46.9827 474.834 48.4853 473.208 49.62C471.583 50.7547 469.62 51.322 467.32 51.322C465.112 51.322 463.134 50.8007 461.386 49.758C459.669 48.7153 458.32 47.2127 457.338 45.25C456.357 43.2873 455.866 40.972 455.866 38.304C455.866 35.6667 456.357 33.3667 457.338 31.404C458.32 29.4413 459.669 27.9387 461.386 26.896C463.134 25.8533 465.112 25.332 467.32 25.332ZM468.93 29.932C466.6 29.932 464.729 30.6833 463.318 32.186C461.938 33.658 461.248 35.6973 461.248 38.304C461.248 40.9107 461.938 42.9653 463.318 44.468C464.729 45.94 466.6 46.676 468.93 46.676C470.402 46.676 471.721 46.3387 472.886 45.664C474.052 44.9587 474.972 43.9773 475.646 42.72C476.321 41.4627 476.658 39.9907 476.658 38.304C476.658 36.648 476.321 35.1913 475.646 33.934C474.972 32.646 474.052 31.6647 472.886 30.99C471.721 30.2847 470.402 29.932 468.93 29.932ZM498.361 25.332C500.661 25.332 502.624 25.8993 504.249 27.034C505.875 28.1687 507.025 29.6713 507.699 31.542V25.654H512.943V51H507.699V45.112C507.025 46.9827 505.875 48.4853 504.249 49.62C502.624 50.7547 500.661 51.322 498.361 51.322C496.153 51.322 494.175 50.8007 492.427 49.758C490.71 48.7153 489.361 47.2127 488.379 45.25C487.398 43.2873 486.907 40.972 486.907 38.304C486.907 35.6667 487.398 33.3667 488.379 31.404C489.361 29.4413 490.71 27.9387 492.427 26.896C494.175 25.8533 496.153 25.332 498.361 25.332ZM499.971 29.932C497.641 29.932 495.77 30.6833 494.359 32.186C492.979 33.658 492.289 35.6973 492.289 38.304C492.289 40.9107 492.979 42.9653 494.359 44.468C495.77 45.94 497.641 46.676 499.971 46.676C501.443 46.676 502.762 46.3387 503.927 45.664C505.093 44.9587 506.013 43.9773 506.687 42.72C507.362 41.4627 507.699 39.9907 507.699 38.304C507.699 36.648 507.362 35.1913 506.687 33.934C506.013 32.646 505.093 31.6647 503.927 30.99C502.762 30.2847 501.443 29.932 499.971 29.932ZM529.403 25.332C531.703 25.332 533.665 25.8993 535.291 27.034C536.916 28.1687 538.051 29.6713 538.695 31.542V16.96H543.985V51H538.695V45.112C538.051 46.9827 536.916 48.4853 535.291 49.62C533.665 50.7547 531.703 51.322 529.403 51.322C527.195 51.322 525.217 50.8007 523.469 49.758C521.751 48.7153 520.402 47.2127 519.421 45.25C518.439 43.2873 517.949 40.972 517.949 38.304C517.949 35.6667 518.439 33.3667 519.421 31.404C520.402 29.4413 521.751 27.9387 523.469 26.896C525.217 25.8533 527.195 25.332 529.403 25.332ZM531.013 29.932C528.682 29.932 526.811 30.6833 525.401 32.186C524.021 33.658 523.331 35.6973 523.331 38.304C523.331 40.9107 524.021 42.9653 525.401 44.468C526.811 45.94 528.682 46.676 531.013 46.676C532.485 46.676 533.803 46.3387 534.969 45.664C536.134 44.9587 537.054 43.9773 537.729 42.72C538.403 41.4627 538.741 39.9907 538.741 38.304C538.741 36.648 538.403 35.1913 537.729 33.934C537.054 32.646 536.134 31.6647 534.969 30.99C533.803 30.2847 532.485 29.932 531.013 29.932ZM573.83 37.108C573.83 37.9667 573.768 38.718 573.646 39.362H554.142C554.234 41.9687 554.954 43.9007 556.304 45.158C557.653 46.4153 559.324 47.044 561.318 47.044C563.066 47.044 564.538 46.5993 565.734 45.71C566.96 44.8207 567.712 43.64 567.988 42.168H573.6C573.262 43.9467 572.557 45.526 571.484 46.906C570.41 48.286 569.015 49.3747 567.298 50.172C565.58 50.9387 563.664 51.322 561.548 51.322C559.094 51.322 556.917 50.8007 555.016 49.758C553.145 48.7153 551.673 47.2127 550.6 45.25C549.526 43.2873 548.99 40.972 548.99 38.304C548.99 35.6667 549.526 33.3667 550.6 31.404C551.673 29.4413 553.145 27.9387 555.016 26.896C556.917 25.8533 559.094 25.332 561.548 25.332C564.032 25.332 566.194 25.8533 568.034 26.896C569.904 27.908 571.33 29.3187 572.312 31.128C573.324 32.9067 573.83 34.9 573.83 37.108ZM568.54 36.97C568.601 35.314 568.31 33.934 567.666 32.83C567.052 31.6953 566.194 30.8673 565.09 30.346C564.016 29.794 562.836 29.518 561.548 29.518C559.493 29.518 557.776 30.1467 556.396 31.404C555.016 32.6613 554.264 34.5167 554.142 36.97H568.54ZM13.34 94.332C15.64 94.332 17.6027 94.8993 19.228 96.034C20.8533 97.1687 22.0033 98.6713 22.678 100.542V94.654H27.922V120H22.678V114.112C22.0033 115.983 20.8533 117.485 19.228 118.62C17.6027 119.755 15.64 120.322 13.34 120.322C11.132 120.322 9.154 119.801 7.406 118.758C5.68867 117.715 4.33933 116.213 3.358 114.25C2.37667 112.287 1.886 109.972 1.886 107.304C1.886 104.667 2.37667 102.367 3.358 100.404C4.33933 98.4413 5.68867 96.9387 7.406 95.896C9.154 94.8533 11.132 94.332 13.34 94.332ZM14.95 98.932C12.6193 98.932 10.7487 99.6833 9.338 101.186C7.958 102.658 7.268 104.697 7.268 107.304C7.268 109.911 7.958 111.965 9.338 113.468C10.7487 114.94 12.6193 115.676 14.95 115.676C16.422 115.676 17.7407 115.339 18.906 114.664C20.0713 113.959 20.9913 112.977 21.666 111.72C22.3407 110.463 22.678 108.991 22.678 107.304C22.678 105.648 22.3407 104.191 21.666 102.934C20.9913 101.646 20.0713 100.665 18.906 99.99C17.7407 99.2847 16.422 98.932 14.95 98.932ZM46.957 115.446V120H43.737C41.0383 120 38.9837 119.356 37.573 118.068C36.193 116.749 35.503 114.572 35.503 111.536V99.116H31.869V94.654H35.503V88.352H40.793V94.654H46.911V99.116H40.793V111.628C40.793 113.069 41.0537 114.066 41.575 114.618C42.127 115.17 43.0777 115.446 44.427 115.446H46.957ZM57.1133 99.622C57.972 97.966 59.1986 96.6627 60.7933 95.712C62.388 94.7307 64.228 94.24 66.3133 94.24V99.944H64.7493C62.4493 99.944 60.594 100.511 59.1833 101.646C57.8033 102.75 57.1133 104.59 57.1133 107.166V120H51.8693V94.654H57.1133V99.622ZM80.4084 94.332C82.7084 94.332 84.671 94.8993 86.2964 96.034C87.9217 97.1687 89.0717 98.6713 89.7464 100.542V94.654H94.9904V120H89.7464V114.112C89.0717 115.983 87.9217 117.485 86.2964 118.62C84.671 119.755 82.7084 120.322 80.4084 120.322C78.2004 120.322 76.2224 119.801 74.4744 118.758C72.757 117.715 71.4077 116.213 70.4264 114.25C69.445 112.287 68.9544 109.972 68.9544 107.304C68.9544 104.667 69.445 102.367 70.4264 100.404C71.4077 98.4413 72.757 96.9387 74.4744 95.896C76.2224 94.8533 78.2004 94.332 80.4084 94.332ZM82.0184 98.932C79.6877 98.932 77.817 99.6833 76.4064 101.186C75.0264 102.658 74.3364 104.697 74.3364 107.304C74.3364 109.911 75.0264 111.965 76.4064 113.468C77.817 114.94 79.6877 115.676 82.0184 115.676C83.4904 115.676 84.809 115.339 85.9744 114.664C87.1397 113.959 88.0597 112.977 88.7344 111.72C89.409 110.463 89.7464 108.991 89.7464 107.304C89.7464 105.648 89.409 104.191 88.7344 102.934C88.0597 101.646 87.1397 100.665 85.9744 99.99C84.809 99.2847 83.4904 98.932 82.0184 98.932ZM111.679 114.572L118.855 94.654H124.467L114.807 120H108.459L98.7994 94.654H104.411L111.679 114.572ZM151.878 106.108C151.878 106.967 151.817 107.718 151.694 108.362H132.19C132.282 110.969 133.003 112.901 134.352 114.158C135.702 115.415 137.373 116.044 139.366 116.044C141.114 116.044 142.586 115.599 143.782 114.71C145.009 113.821 145.76 112.64 146.036 111.168H151.648C151.311 112.947 150.606 114.526 149.532 115.906C148.459 117.286 147.064 118.375 145.346 119.172C143.629 119.939 141.712 120.322 139.596 120.322C137.143 120.322 134.966 119.801 133.064 118.758C131.194 117.715 129.722 116.213 128.648 114.25C127.575 112.287 127.038 109.972 127.038 107.304C127.038 104.667 127.575 102.367 128.648 100.404C129.722 98.4413 131.194 96.9387 133.064 95.896C134.966 94.8533 137.143 94.332 139.596 94.332C142.08 94.332 144.242 94.8533 146.082 95.896C147.953 96.908 149.379 98.3187 150.36 100.128C151.372 101.907 151.878 103.9 151.878 106.108ZM146.588 105.97C146.65 104.314 146.358 102.934 145.714 101.83C145.101 100.695 144.242 99.8673 143.138 99.346C142.065 98.794 140.884 98.518 139.596 98.518C137.542 98.518 135.824 99.1467 134.444 100.404C133.064 101.661 132.313 103.517 132.19 105.97H146.588ZM146.772 87.478L136.606 92.676V88.996L146.772 83.384V87.478ZM165.268 94.332C168.242 94.332 170.619 95.0987 172.398 96.632C174.207 98.1347 175.311 100.159 175.71 102.704H170.742C170.527 101.324 169.929 100.22 168.948 99.392C167.997 98.5333 166.724 98.104 165.13 98.104C163.811 98.104 162.784 98.426 162.048 99.07C161.342 99.6833 160.99 100.527 160.99 101.6C160.99 102.397 161.25 103.041 161.772 103.532C162.293 104.023 162.937 104.406 163.704 104.682C164.501 104.958 165.62 105.265 167.062 105.602C168.963 106.031 170.496 106.476 171.662 106.936C172.858 107.396 173.87 108.132 174.698 109.144C175.556 110.125 175.986 111.475 175.986 113.192C175.986 115.308 175.173 117.025 173.548 118.344C171.953 119.663 169.791 120.322 167.062 120.322C163.903 120.322 161.342 119.586 159.38 118.114C157.448 116.642 156.282 114.587 155.884 111.95H160.99C161.143 113.33 161.756 114.449 162.83 115.308C163.903 116.167 165.314 116.596 167.062 116.596C168.319 116.596 169.3 116.274 170.006 115.63C170.742 114.955 171.11 114.112 171.11 113.1C171.11 112.211 170.834 111.505 170.282 110.984C169.73 110.463 169.04 110.064 168.212 109.788C167.384 109.481 166.249 109.175 164.808 108.868C162.968 108.439 161.465 108.009 160.3 107.58C159.165 107.151 158.184 106.461 157.356 105.51C156.558 104.529 156.16 103.21 156.16 101.554C156.16 99.4073 156.957 97.6747 158.552 96.356C160.177 95.0067 162.416 94.332 165.268 94.332ZM202.192 94.332C204.492 94.332 206.454 94.8993 208.08 96.034C209.705 97.1687 210.84 98.6713 211.484 100.542V85.96H216.774V120H211.484V114.112C210.84 115.983 209.705 117.485 208.08 118.62C206.454 119.755 204.492 120.322 202.192 120.322C199.984 120.322 198.006 119.801 196.258 118.758C194.54 117.715 193.191 116.213 192.21 114.25C191.228 112.287 190.738 109.972 190.738 107.304C190.738 104.667 191.228 102.367 192.21 100.404C193.191 98.4413 194.54 96.9387 196.258 95.896C198.006 94.8533 199.984 94.332 202.192 94.332ZM203.802 98.932C201.471 98.932 199.6 99.6833 198.19 101.186C196.81 102.658 196.12 104.697 196.12 107.304C196.12 109.911 196.81 111.965 198.19 113.468C199.6 114.94 201.471 115.676 203.802 115.676C205.274 115.676 206.592 115.339 207.758 114.664C208.923 113.959 209.843 112.977 210.518 111.72C211.192 110.463 211.53 108.991 211.53 107.304C211.53 105.648 211.192 104.191 210.518 102.934C209.843 101.646 208.923 100.665 207.758 99.99C206.592 99.2847 205.274 98.932 203.802 98.932ZM246.619 106.108C246.619 106.967 246.557 107.718 246.435 108.362H226.931C227.023 110.969 227.743 112.901 229.093 114.158C230.442 115.415 232.113 116.044 234.107 116.044C235.855 116.044 237.327 115.599 238.523 114.71C239.749 113.821 240.501 112.64 240.777 111.168H246.389C246.051 112.947 245.346 114.526 244.273 115.906C243.199 117.286 241.804 118.375 240.087 119.172C238.369 119.939 236.453 120.322 234.337 120.322C231.883 120.322 229.706 119.801 227.805 118.758C225.934 117.715 224.462 116.213 223.389 114.25C222.315 112.287 221.779 109.972 221.779 107.304C221.779 104.667 222.315 102.367 223.389 100.404C224.462 98.4413 225.934 96.9387 227.805 95.896C229.706 94.8533 231.883 94.332 234.337 94.332C236.821 94.332 238.983 94.8533 240.823 95.896C242.693 96.908 244.119 98.3187 245.101 100.128C246.113 101.907 246.619 103.9 246.619 106.108ZM241.329 105.97C241.39 104.314 241.099 102.934 240.455 101.83C239.841 100.695 238.983 99.8673 237.879 99.346C236.805 98.794 235.625 98.518 234.337 98.518C232.282 98.518 230.565 99.1467 229.185 100.404C227.805 101.661 227.053 103.517 226.931 105.97H241.329ZM272.629 94.332C274.929 94.332 276.892 94.8993 278.517 96.034C280.142 97.1687 281.292 98.6713 281.967 100.542V94.654H287.211V120H281.967V114.112C281.292 115.983 280.142 117.485 278.517 118.62C276.892 119.755 274.929 120.322 272.629 120.322C270.421 120.322 268.443 119.801 266.695 118.758C264.978 117.715 263.628 116.213 262.647 114.25C261.666 112.287 261.175 109.972 261.175 107.304C261.175 104.667 261.666 102.367 262.647 100.404C263.628 98.4413 264.978 96.9387 266.695 95.896C268.443 94.8533 270.421 94.332 272.629 94.332ZM274.239 98.932C271.908 98.932 270.038 99.6833 268.627 101.186C267.247 102.658 266.557 104.697 266.557 107.304C266.557 109.911 267.247 111.965 268.627 113.468C270.038 114.94 271.908 115.676 274.239 115.676C275.711 115.676 277.03 115.339 278.195 114.664C279.36 113.959 280.28 112.977 280.955 111.72C281.63 110.463 281.967 108.991 281.967 107.304C281.967 105.648 281.63 104.191 280.955 102.934C280.28 101.646 279.36 100.665 278.195 99.99C277.03 99.2847 275.711 98.932 274.239 98.932ZM304.774 94.332C308.055 94.332 310.769 95.206 312.916 96.954C315.063 98.6713 316.397 101.017 316.918 103.992H311.352C311.045 102.397 310.294 101.155 309.098 100.266C307.933 99.346 306.461 98.886 304.682 98.886C302.658 98.886 300.971 99.6067 299.622 101.048C298.273 102.459 297.598 104.544 297.598 107.304C297.598 110.064 298.273 112.165 299.622 113.606C300.971 115.047 302.658 115.768 304.682 115.768C306.461 115.768 307.933 115.308 309.098 114.388C310.294 113.468 311.045 112.211 311.352 110.616H316.918C316.397 113.591 315.063 115.952 312.916 117.7C310.769 119.448 308.055 120.322 304.774 120.322C302.321 120.322 300.143 119.801 298.242 118.758C296.371 117.715 294.899 116.213 293.826 114.25C292.753 112.287 292.216 109.972 292.216 107.304C292.216 104.667 292.753 102.367 293.826 100.404C294.899 98.4413 296.371 96.9387 298.242 95.896C300.143 94.8533 302.321 94.332 304.774 94.332ZM333.577 94.332C336.03 94.332 338.238 94.8533 340.201 95.896C342.163 96.9387 343.697 98.4413 344.801 100.404C345.905 102.367 346.457 104.667 346.457 107.304C346.457 109.972 345.905 112.287 344.801 114.25C343.697 116.213 342.163 117.715 340.201 118.758C338.238 119.801 336.03 120.322 333.577 120.322C331.123 120.322 328.915 119.801 326.953 118.758C325.021 117.715 323.487 116.213 322.353 114.25C321.249 112.257 320.697 109.941 320.697 107.304C320.697 104.667 321.249 102.367 322.353 100.404C323.487 98.4413 325.021 96.9387 326.953 95.896C328.915 94.8533 331.123 94.332 333.577 94.332ZM333.577 98.886C332.227 98.886 330.985 99.1927 329.851 99.806C328.716 100.419 327.796 101.37 327.091 102.658C326.416 103.915 326.079 105.464 326.079 107.304C326.079 109.175 326.416 110.739 327.091 111.996C327.796 113.253 328.716 114.189 329.851 114.802C330.985 115.415 332.227 115.722 333.577 115.722C334.926 115.722 336.168 115.415 337.303 114.802C338.437 114.189 339.342 113.253 340.017 111.996C340.722 110.739 341.075 109.175 341.075 107.304C341.075 105.464 340.722 103.915 340.017 102.658C339.342 101.37 338.437 100.419 337.303 99.806C336.168 99.1927 334.926 98.886 333.577 98.886ZM365.666 94.24C368.61 94.24 370.972 95.1907 372.75 97.092C374.529 98.9933 375.418 101.707 375.418 105.234V120H370.174V105.786C370.174 103.517 369.592 101.769 368.426 100.542C367.261 99.2847 365.666 98.656 363.642 98.656C361.557 98.656 359.886 99.3307 358.628 100.68C357.371 101.999 356.742 103.946 356.742 106.522V120H351.498V94.654H356.742V100.22C357.417 98.3187 358.552 96.8467 360.146 95.804C361.741 94.7613 363.581 94.24 365.666 94.24ZM389.877 94.332C392.852 94.332 395.228 95.0987 397.007 96.632C398.816 98.1347 399.92 100.159 400.319 102.704H395.351C395.136 101.324 394.538 100.22 393.557 99.392C392.606 98.5333 391.334 98.104 389.739 98.104C388.42 98.104 387.393 98.426 386.657 99.07C385.952 99.6833 385.599 100.527 385.599 101.6C385.599 102.397 385.86 103.041 386.381 103.532C386.902 104.023 387.546 104.406 388.313 104.682C389.11 104.958 390.23 105.265 391.671 105.602C393.572 106.031 395.106 106.476 396.271 106.936C397.467 107.396 398.479 108.132 399.307 109.144C400.166 110.125 400.595 111.475 400.595 113.192C400.595 115.308 399.782 117.025 398.157 118.344C396.562 119.663 394.4 120.322 391.671 120.322C388.512 120.322 385.952 119.586 383.989 118.114C382.057 116.642 380.892 114.587 380.493 111.95H385.599C385.752 113.33 386.366 114.449 387.439 115.308C388.512 116.167 389.923 116.596 391.671 116.596C392.928 116.596 393.91 116.274 394.615 115.63C395.351 114.955 395.719 114.112 395.719 113.1C395.719 112.211 395.443 111.505 394.891 110.984C394.339 110.463 393.649 110.064 392.821 109.788C391.993 109.481 390.858 109.175 389.417 108.868C387.577 108.439 386.074 108.009 384.909 107.58C383.774 107.151 382.793 106.461 381.965 105.51C381.168 104.529 380.769 103.21 380.769 101.554C380.769 99.4073 381.566 97.6747 383.161 96.356C384.786 95.0067 387.025 94.332 389.877 94.332ZM429.406 106.108C429.406 106.967 429.344 107.718 429.222 108.362H409.718C409.81 110.969 410.53 112.901 411.88 114.158C413.229 115.415 414.9 116.044 416.894 116.044C418.642 116.044 420.114 115.599 421.31 114.71C422.536 113.821 423.288 112.64 423.564 111.168H429.176C428.838 112.947 428.133 114.526 427.06 115.906C425.986 117.286 424.591 118.375 422.874 119.172C421.156 119.939 419.24 120.322 417.124 120.322C414.67 120.322 412.493 119.801 410.592 118.758C408.721 117.715 407.249 116.213 406.176 114.25C405.102 112.287 404.566 109.972 404.566 107.304C404.566 104.667 405.102 102.367 406.176 100.404C407.249 98.4413 408.721 96.9387 410.592 95.896C412.493 94.8533 414.67 94.332 417.124 94.332C419.608 94.332 421.77 94.8533 423.61 95.896C425.48 96.908 426.906 98.3187 427.888 100.128C428.9 101.907 429.406 103.9 429.406 106.108ZM424.116 105.97C424.177 104.314 423.886 102.934 423.242 101.83C422.628 100.695 421.77 99.8673 420.666 99.346C419.592 98.794 418.412 98.518 417.124 98.518C415.069 98.518 413.352 99.1467 411.972 100.404C410.592 101.661 409.84 103.517 409.718 105.97H424.116ZM439.713 85.96V120H434.469V85.96H439.713ZM460.227 94.24C463.171 94.24 465.532 95.1907 467.311 97.092C469.089 98.9933 469.979 101.707 469.979 105.234V120H464.735V105.786C464.735 103.517 464.152 101.769 462.987 100.542C461.821 99.2847 460.227 98.656 458.203 98.656C456.117 98.656 454.446 99.3307 453.189 100.68C451.931 101.999 451.303 103.946 451.303 106.522V120H446.059V85.96H451.303V100.22C451.977 98.3187 453.112 96.8467 454.707 95.804C456.301 94.7613 458.141 94.24 460.227 94.24ZM486.278 94.332C488.578 94.332 490.54 94.8993 492.166 96.034C493.791 97.1687 494.941 98.6713 495.616 100.542V94.654H500.86V120H495.616V114.112C494.941 115.983 493.791 117.485 492.166 118.62C490.54 119.755 488.578 120.322 486.278 120.322C484.07 120.322 482.092 119.801 480.344 118.758C478.626 117.715 477.277 116.213 476.296 114.25C475.314 112.287 474.824 109.972 474.824 107.304C474.824 104.667 475.314 102.367 476.296 100.404C477.277 98.4413 478.626 96.9387 480.344 95.896C482.092 94.8533 484.07 94.332 486.278 94.332ZM487.888 98.932C485.557 98.932 483.686 99.6833 482.276 101.186C480.896 102.658 480.206 104.697 480.206 107.304C480.206 109.911 480.896 111.965 482.276 113.468C483.686 114.94 485.557 115.676 487.888 115.676C489.36 115.676 490.678 115.339 491.844 114.664C493.009 113.959 493.929 112.977 494.604 111.72C495.278 110.463 495.616 108.991 495.616 107.304C495.616 105.648 495.278 104.191 494.604 102.934C493.929 101.646 493.009 100.665 491.844 99.99C490.678 99.2847 489.36 98.932 487.888 98.932ZM538.847 94.24C541.852 94.24 544.244 95.1907 546.023 97.092C547.832 98.9933 548.737 101.707 548.737 105.234V120H543.493V105.786C543.493 103.578 542.941 101.876 541.837 100.68C540.733 99.4533 539.215 98.84 537.283 98.84C535.228 98.84 533.587 99.4993 532.361 100.818C531.165 102.106 530.567 104.007 530.567 106.522V120H525.323V105.786C525.323 103.578 524.771 101.876 523.667 100.68C522.563 99.4533 521.045 98.84 519.113 98.84C517.058 98.84 515.417 99.4993 514.191 100.818C512.995 102.106 512.397 104.007 512.397 106.522V120H507.153V94.654H512.397V99.944C513.041 98.104 514.114 96.6933 515.617 95.712C517.119 94.7307 518.883 94.24 520.907 94.24C523.023 94.24 524.847 94.7613 526.381 95.804C527.945 96.8467 529.079 98.3493 529.785 100.312C530.521 98.4107 531.701 96.9233 533.327 95.85C534.952 94.7767 536.792 94.24 538.847 94.24ZM578.412 106.108C578.412 106.967 578.35 107.718 578.228 108.362H558.724C558.816 110.969 559.536 112.901 560.886 114.158C562.235 115.415 563.906 116.044 565.9 116.044C567.648 116.044 569.12 115.599 570.316 114.71C571.542 113.821 572.294 112.64 572.57 111.168H578.182C577.844 112.947 577.139 114.526 576.066 115.906C574.992 117.286 573.597 118.375 571.88 119.172C570.162 119.939 568.246 120.322 566.13 120.322C563.676 120.322 561.499 119.801 559.598 118.758C557.727 117.715 556.255 116.213 555.182 114.25C554.108 112.287 553.572 109.972 553.572 107.304C553.572 104.667 554.108 102.367 555.182 100.404C556.255 98.4413 557.727 96.9387 559.598 95.896C561.499 94.8533 563.676 94.332 566.13 94.332C568.614 94.332 570.776 94.8533 572.616 95.896C574.486 96.908 575.912 98.3187 576.894 100.128C577.906 101.907 578.412 103.9 578.412 106.108ZM573.122 105.97C573.183 104.314 572.892 102.934 572.248 101.83C571.634 100.695 570.776 99.8673 569.672 99.346C568.598 98.794 567.418 98.518 566.13 98.518C564.075 98.518 562.358 99.1467 560.978 100.404C559.598 101.661 558.846 103.517 558.724 105.97H573.122ZM597.643 94.24C600.587 94.24 602.948 95.1907 604.727 97.092C606.505 98.9933 607.395 101.707 607.395 105.234V120H602.151V105.786C602.151 103.517 601.568 101.769 600.403 100.542C599.237 99.2847 597.643 98.656 595.619 98.656C593.533 98.656 591.862 99.3307 590.605 100.68C589.347 101.999 588.719 103.946 588.719 106.522V120H583.475V94.654H588.719V100.22C589.393 98.3187 590.528 96.8467 592.123 95.804C593.717 94.7613 595.557 94.24 597.643 94.24ZM626.27 115.446V120H623.05C620.351 120 618.296 119.356 616.886 118.068C615.506 116.749 614.816 114.572 614.816 111.536V99.116H611.182V94.654H614.816V88.352H620.106V94.654H626.224V99.116H620.106V111.628C620.106 113.069 620.366 114.066 620.888 114.618C621.44 115.17 622.39 115.446 623.74 115.446H626.27ZM642.774 94.332C645.227 94.332 647.435 94.8533 649.398 95.896C651.36 96.9387 652.894 98.4413 653.998 100.404C655.102 102.367 655.654 104.667 655.654 107.304C655.654 109.972 655.102 112.287 653.998 114.25C652.894 116.213 651.36 117.715 649.398 118.758C647.435 119.801 645.227 120.322 642.774 120.322C640.32 120.322 638.112 119.801 636.15 118.758C634.218 117.715 632.684 116.213 631.55 114.25C630.446 112.257 629.894 109.941 629.894 107.304C629.894 104.667 630.446 102.367 631.55 100.404C632.684 98.4413 634.218 96.9387 636.15 95.896C638.112 94.8533 640.32 94.332 642.774 94.332ZM642.774 98.886C641.424 98.886 640.182 99.1927 639.048 99.806C637.913 100.419 636.993 101.37 636.288 102.658C635.613 103.915 635.276 105.464 635.276 107.304C635.276 109.175 635.613 110.739 636.288 111.996C636.993 113.253 637.913 114.189 639.048 114.802C640.182 115.415 641.424 115.722 642.774 115.722C644.123 115.722 645.365 115.415 646.5 114.802C647.634 114.189 648.539 113.253 649.214 111.996C649.919 110.739 650.272 109.175 650.272 107.304C650.272 105.464 649.919 103.915 649.214 102.658C648.539 101.37 647.634 100.419 646.5 99.806C645.365 99.1927 644.123 98.886 642.774 98.886ZM14.996 158.41C12.9413 158.318 11.5 158.655 10.672 159.422C9.844 160.158 9.43 161.431 9.43 163.24V163.654H14.996V168.162H9.43V189H4.14V168.162H0.69V163.654H4.14V162.826C4.14 159.729 5.04467 157.413 6.854 155.88C8.66333 154.316 11.3773 153.626 14.996 153.81V158.41ZM18.4751 156.294C18.4751 155.405 18.7818 154.669 19.3951 154.086C20.0084 153.503 20.8211 153.212 21.8331 153.212C22.8451 153.212 23.6578 153.503 24.2711 154.086C24.9151 154.669 25.2371 155.405 25.2371 156.294C25.2371 157.183 24.9151 157.904 24.2711 158.456C23.6578 159.008 22.8451 159.284 21.8331 159.284C20.8211 159.284 20.0084 159.008 19.3951 158.456C18.7818 157.904 18.4751 157.183 18.4751 156.294ZM24.4551 163.654V189H19.2111V163.654H24.4551ZM39.127 163.332C42.1016 163.332 44.4783 164.099 46.257 165.632C48.0663 167.135 49.1703 169.159 49.569 171.704H44.601C44.3863 170.324 43.7883 169.22 42.807 168.392C41.8563 167.533 40.5836 167.104 38.989 167.104C37.6703 167.104 36.643 167.426 35.907 168.07C35.2016 168.683 34.849 169.527 34.849 170.6C34.849 171.397 35.1096 172.041 35.631 172.532C36.1523 173.023 36.7963 173.406 37.563 173.682C38.3603 173.958 39.4796 174.265 40.921 174.602C42.8223 175.031 44.3556 175.476 45.521 175.936C46.717 176.396 47.729 177.132 48.557 178.144C49.4156 179.125 49.845 180.475 49.845 182.192C49.845 184.308 49.0323 186.025 47.407 187.344C45.8123 188.663 43.6503 189.322 40.921 189.322C37.7623 189.322 35.2016 188.586 33.239 187.114C31.307 185.642 30.1416 183.587 29.743 180.95H34.849C35.0023 182.33 35.6156 183.449 36.689 184.308C37.7623 185.167 39.173 185.596 40.921 185.596C42.1783 185.596 43.1596 185.274 43.865 184.63C44.601 183.955 44.969 183.112 44.969 182.1C44.969 181.211 44.693 180.505 44.141 179.984C43.589 179.463 42.899 179.064 42.071 178.788C41.243 178.481 40.1083 178.175 38.667 177.868C36.827 177.439 35.3243 177.009 34.159 176.58C33.0243 176.151 32.043 175.461 31.215 174.51C30.4176 173.529 30.019 172.21 30.019 170.554C30.019 168.407 30.8163 166.675 32.411 165.356C34.0363 164.007 36.275 163.332 39.127 163.332ZM66.3737 163.332C69.655 163.332 72.369 164.206 74.5157 165.954C76.6624 167.671 77.9964 170.017 78.5177 172.992H72.9517C72.645 171.397 71.8937 170.155 70.6977 169.266C69.5324 168.346 68.0604 167.886 66.2817 167.886C64.2577 167.886 62.571 168.607 61.2217 170.048C59.8724 171.459 59.1977 173.544 59.1977 176.304C59.1977 179.064 59.8724 181.165 61.2217 182.606C62.571 184.047 64.2577 184.768 66.2817 184.768C68.0604 184.768 69.5324 184.308 70.6977 183.388C71.8937 182.468 72.645 181.211 72.9517 179.616H78.5177C77.9964 182.591 76.6624 184.952 74.5157 186.7C72.369 188.448 69.655 189.322 66.3737 189.322C63.9204 189.322 61.743 188.801 59.8417 187.758C57.971 186.715 56.499 185.213 55.4257 183.25C54.3524 181.287 53.8157 178.972 53.8157 176.304C53.8157 173.667 54.3524 171.367 55.4257 169.404C56.499 167.441 57.971 165.939 59.8417 164.896C61.743 163.853 63.9204 163.332 66.3737 163.332ZM93.7502 163.332C96.0502 163.332 98.0128 163.899 99.6382 165.034C101.263 166.169 102.413 167.671 103.088 169.542V163.654H108.332V189H103.088V183.112C102.413 184.983 101.263 186.485 99.6382 187.62C98.0128 188.755 96.0502 189.322 93.7502 189.322C91.5422 189.322 89.5642 188.801 87.8162 187.758C86.0988 186.715 84.7495 185.213 83.7682 183.25C82.7868 181.287 82.2962 178.972 82.2962 176.304C82.2962 173.667 82.7868 171.367 83.7682 169.404C84.7495 167.441 86.0988 165.939 87.8162 164.896C89.5642 163.853 91.5422 163.332 93.7502 163.332ZM95.3602 167.932C93.0295 167.932 91.1588 168.683 89.7482 170.186C88.3682 171.658 87.6782 173.697 87.6782 176.304C87.6782 178.911 88.3682 180.965 89.7482 182.468C91.1588 183.94 93.0295 184.676 95.3602 184.676C96.8322 184.676 98.1508 184.339 99.3162 183.664C100.481 182.959 101.401 181.977 102.076 180.72C102.751 179.463 103.088 177.991 103.088 176.304C103.088 174.648 102.751 173.191 102.076 171.934C101.401 170.646 100.481 169.665 99.3162 168.99C98.1508 168.285 96.8322 167.932 95.3602 167.932ZM119.869 154.96V189H114.625V154.96H119.869ZM129.435 185.412C129.987 186.823 130.263 188.279 130.263 189.782C130.263 191.499 129.818 192.895 128.929 193.968C128.04 195.072 126.69 195.624 124.881 195.624V193.508C125.648 193.508 126.215 193.309 126.583 192.91C126.951 192.511 127.135 191.837 127.135 190.886V190.472H124.467V185.412H129.435ZM169.443 175.108C169.443 175.967 169.381 176.718 169.259 177.362H149.755C149.847 179.969 150.567 181.901 151.917 183.158C153.266 184.415 154.937 185.044 156.931 185.044C158.679 185.044 160.151 184.599 161.347 183.71C162.573 182.821 163.325 181.64 163.601 180.168H169.213C168.875 181.947 168.17 183.526 167.097 184.906C166.023 186.286 164.628 187.375 162.911 188.172C161.193 188.939 159.277 189.322 157.161 189.322C154.707 189.322 152.53 188.801 150.629 187.758C148.758 186.715 147.286 185.213 146.213 183.25C145.139 181.287 144.603 178.972 144.603 176.304C144.603 173.667 145.139 171.367 146.213 169.404C147.286 167.441 148.758 165.939 150.629 164.896C152.53 163.853 154.707 163.332 157.161 163.332C159.645 163.332 161.807 163.853 163.647 164.896C165.517 165.908 166.943 167.319 167.925 169.128C168.937 170.907 169.443 172.9 169.443 175.108ZM164.153 174.97C164.214 173.314 163.923 171.934 163.279 170.83C162.665 169.695 161.807 168.867 160.703 168.346C159.629 167.794 158.449 167.518 157.161 167.518C155.106 167.518 153.389 168.147 152.009 169.404C150.629 170.661 149.877 172.517 149.755 174.97H164.153ZM182.832 163.332C185.807 163.332 188.183 164.099 189.962 165.632C191.771 167.135 192.875 169.159 193.274 171.704H188.306C188.091 170.324 187.493 169.22 186.512 168.392C185.561 167.533 184.289 167.104 182.694 167.104C181.375 167.104 180.348 167.426 179.612 168.07C178.907 168.683 178.554 169.527 178.554 170.6C178.554 171.397 178.815 172.041 179.336 172.532C179.857 173.023 180.501 173.406 181.268 173.682C182.065 173.958 183.185 174.265 184.626 174.602C186.527 175.031 188.061 175.476 189.226 175.936C190.422 176.396 191.434 177.132 192.262 178.144C193.121 179.125 193.55 180.475 193.55 182.192C193.55 184.308 192.737 186.025 191.112 187.344C189.517 188.663 187.355 189.322 184.626 189.322C181.467 189.322 178.907 188.586 176.944 187.114C175.012 185.642 173.847 183.587 173.448 180.95H178.554C178.707 182.33 179.321 183.449 180.394 184.308C181.467 185.167 182.878 185.596 184.626 185.596C185.883 185.596 186.865 185.274 187.57 184.63C188.306 183.955 188.674 183.112 188.674 182.1C188.674 181.211 188.398 180.505 187.846 179.984C187.294 179.463 186.604 179.064 185.776 178.788C184.948 178.481 183.813 178.175 182.372 177.868C180.532 177.439 179.029 177.009 177.864 176.58C176.729 176.151 175.748 175.461 174.92 174.51C174.123 173.529 173.724 172.21 173.724 170.554C173.724 168.407 174.521 166.675 176.116 165.356C177.741 164.007 179.98 163.332 182.832 163.332ZM211.551 184.446V189H208.331C205.632 189 203.577 188.356 202.167 187.068C200.787 185.749 200.097 183.572 200.097 180.536V168.116H196.463V163.654H200.097V157.352H205.387V163.654H211.505V168.116H205.387V180.628C205.387 182.069 205.647 183.066 206.169 183.618C206.721 184.17 207.671 184.446 209.021 184.446H211.551ZM221.707 168.622C222.566 166.966 223.792 165.663 225.387 164.712C226.982 163.731 228.822 163.24 230.907 163.24V168.944H229.343C227.043 168.944 225.188 169.511 223.777 170.646C222.397 171.75 221.707 173.59 221.707 176.166V189H216.463V163.654H221.707V168.622ZM245.002 163.332C247.302 163.332 249.265 163.899 250.89 165.034C252.515 166.169 253.665 167.671 254.34 169.542V163.654H259.584V189H254.34V183.112C253.665 184.983 252.515 186.485 250.89 187.62C249.265 188.755 247.302 189.322 245.002 189.322C242.794 189.322 240.816 188.801 239.068 187.758C237.351 186.715 236.001 185.213 235.02 183.25C234.039 181.287 233.548 178.972 233.548 176.304C233.548 173.667 234.039 171.367 235.02 169.404C236.001 167.441 237.351 165.939 239.068 164.896C240.816 163.853 242.794 163.332 245.002 163.332ZM246.612 167.932C244.281 167.932 242.411 168.683 241 170.186C239.62 171.658 238.93 173.697 238.93 176.304C238.93 178.911 239.62 180.965 241 182.468C242.411 183.94 244.281 184.676 246.612 184.676C248.084 184.676 249.403 184.339 250.568 183.664C251.733 182.959 252.653 181.977 253.328 180.72C254.003 179.463 254.34 177.991 254.34 176.304C254.34 174.648 254.003 173.191 253.328 171.934C252.653 170.646 251.733 169.665 250.568 168.99C249.403 168.285 248.084 167.932 246.612 167.932ZM278.619 184.446V189H275.399C272.7 189 270.646 188.356 269.235 187.068C267.855 185.749 267.165 183.572 267.165 180.536V168.116H263.531V163.654H267.165V157.352H272.455V163.654H278.573V168.116H272.455V180.628C272.455 182.069 272.716 183.066 273.237 183.618C273.789 184.17 274.74 184.446 276.089 184.446H278.619ZM307.083 175.108C307.083 175.967 307.022 176.718 306.899 177.362H287.395C287.487 179.969 288.208 181.901 289.557 183.158C290.907 184.415 292.578 185.044 294.571 185.044C296.319 185.044 297.791 184.599 298.987 183.71C300.214 182.821 300.965 181.64 301.241 180.168H306.853C306.516 181.947 305.811 183.526 304.737 184.906C303.664 186.286 302.269 187.375 300.551 188.172C298.834 188.939 296.917 189.322 294.801 189.322C292.348 189.322 290.171 188.801 288.269 187.758C286.399 186.715 284.927 185.213 283.853 183.25C282.78 181.287 282.243 178.972 282.243 176.304C282.243 173.667 282.78 171.367 283.853 169.404C284.927 167.441 286.399 165.939 288.269 164.896C290.171 163.853 292.348 163.332 294.801 163.332C297.285 163.332 299.447 163.853 301.287 164.896C303.158 165.908 304.584 167.319 305.565 169.128C306.577 170.907 307.083 172.9 307.083 175.108ZM301.793 174.97C301.855 173.314 301.563 171.934 300.919 170.83C300.306 169.695 299.447 168.867 298.343 168.346C297.27 167.794 296.089 167.518 294.801 167.518C292.747 167.518 291.029 168.147 289.649 169.404C288.269 170.661 287.518 172.517 287.395 174.97H301.793ZM301.977 156.478L291.811 161.676V157.996L301.977 152.384V156.478ZM322.313 163.332C324.613 163.332 326.575 163.899 328.201 165.034C329.826 166.169 330.976 167.671 331.651 169.542V163.654H336.895V189.276C336.895 191.637 336.404 193.723 335.423 195.532C334.472 197.372 333.092 198.813 331.283 199.856C329.473 200.899 327.327 201.42 324.843 201.42C321.285 201.42 318.403 200.577 316.195 198.89C314.017 197.203 312.653 194.919 312.101 192.036H317.299C317.728 193.539 318.556 194.704 319.783 195.532C321.009 196.391 322.573 196.82 324.475 196.82C326.56 196.82 328.277 196.176 329.627 194.888C330.976 193.6 331.651 191.729 331.651 189.276V183.112C330.976 184.983 329.826 186.485 328.201 187.62C326.575 188.755 324.613 189.322 322.313 189.322C320.105 189.322 318.127 188.801 316.379 187.758C314.661 186.715 313.312 185.213 312.331 183.25C311.349 181.287 310.859 178.972 310.859 176.304C310.859 173.667 311.349 171.367 312.331 169.404C313.312 167.441 314.661 165.939 316.379 164.896C318.127 163.853 320.105 163.332 322.313 163.332ZM323.923 167.932C321.592 167.932 319.721 168.683 318.311 170.186C316.931 171.658 316.241 173.697 316.241 176.304C316.241 178.911 316.931 180.965 318.311 182.468C319.721 183.94 321.592 184.676 323.923 184.676C325.395 184.676 326.713 184.339 327.879 183.664C329.044 182.959 329.964 181.977 330.639 180.72C331.313 179.463 331.651 177.991 331.651 176.304C331.651 174.648 331.313 173.191 330.639 171.934C329.964 170.646 329.044 169.665 327.879 168.99C326.713 168.285 325.395 167.932 323.923 167.932ZM342.452 156.294C342.452 155.405 342.758 154.669 343.372 154.086C343.985 153.503 344.798 153.212 345.81 153.212C346.822 153.212 347.634 153.503 348.248 154.086C348.892 154.669 349.214 155.405 349.214 156.294C349.214 157.183 348.892 157.904 348.248 158.456C347.634 159.008 346.822 159.284 345.81 159.284C344.798 159.284 343.985 159.008 343.372 158.456C342.758 157.904 342.452 157.183 342.452 156.294ZM348.432 163.654V189H343.188V163.654H348.432ZM366.048 163.332C369.329 163.332 372.043 164.206 374.19 165.954C376.336 167.671 377.67 170.017 378.192 172.992H372.626C372.319 171.397 371.568 170.155 370.372 169.266C369.206 168.346 367.734 167.886 365.956 167.886C363.932 167.886 362.245 168.607 360.896 170.048C359.546 171.459 358.872 173.544 358.872 176.304C358.872 179.064 359.546 181.165 360.896 182.606C362.245 184.047 363.932 184.768 365.956 184.768C367.734 184.768 369.206 184.308 370.372 183.388C371.568 182.468 372.319 181.211 372.626 179.616H378.192C377.67 182.591 376.336 184.952 374.19 186.7C372.043 188.448 369.329 189.322 366.048 189.322C363.594 189.322 361.417 188.801 359.516 187.758C357.645 186.715 356.173 185.213 355.1 183.25C354.026 181.287 353.49 178.972 353.49 176.304C353.49 173.667 354.026 171.367 355.1 169.404C356.173 167.441 357.645 165.939 359.516 164.896C361.417 163.853 363.594 163.332 366.048 163.332ZM394.85 163.332C397.303 163.332 399.511 163.853 401.474 164.896C403.437 165.939 404.97 167.441 406.074 169.404C407.178 171.367 407.73 173.667 407.73 176.304C407.73 178.972 407.178 181.287 406.074 183.25C404.97 185.213 403.437 186.715 401.474 187.758C399.511 188.801 397.303 189.322 394.85 189.322C392.397 189.322 390.189 188.801 388.226 187.758C386.294 186.715 384.761 185.213 383.626 183.25C382.522 181.257 381.97 178.941 381.97 176.304C381.97 173.667 382.522 171.367 383.626 169.404C384.761 167.441 386.294 165.939 388.226 164.896C390.189 163.853 392.397 163.332 394.85 163.332ZM394.85 167.886C393.501 167.886 392.259 168.193 391.124 168.806C389.989 169.419 389.069 170.37 388.364 171.658C387.689 172.915 387.352 174.464 387.352 176.304C387.352 178.175 387.689 179.739 388.364 180.996C389.069 182.253 389.989 183.189 391.124 183.802C392.259 184.415 393.501 184.722 394.85 184.722C396.199 184.722 397.441 184.415 398.576 183.802C399.711 183.189 400.615 182.253 401.29 180.996C401.995 179.739 402.348 178.175 402.348 176.304C402.348 174.464 401.995 172.915 401.29 171.658C400.615 170.37 399.711 169.419 398.576 168.806C397.441 168.193 396.199 167.886 394.85 167.886ZM447.105 175.108C447.105 175.967 447.044 176.718 446.921 177.362H427.417C427.509 179.969 428.23 181.901 429.579 183.158C430.928 184.415 432.6 185.044 434.593 185.044C436.341 185.044 437.813 184.599 439.009 183.71C440.236 182.821 440.987 181.64 441.263 180.168H446.875C446.538 181.947 445.832 183.526 444.759 184.906C443.686 186.286 442.29 187.375 440.573 188.172C438.856 188.939 436.939 189.322 434.823 189.322C432.37 189.322 430.192 188.801 428.291 187.758C426.42 186.715 424.948 185.213 423.875 183.25C422.802 181.287 422.265 178.972 422.265 176.304C422.265 173.667 422.802 171.367 423.875 169.404C424.948 167.441 426.42 165.939 428.291 164.896C430.192 163.853 432.37 163.332 434.823 163.332C437.307 163.332 439.469 163.853 441.309 164.896C443.18 165.908 444.606 167.319 445.587 169.128C446.599 170.907 447.105 172.9 447.105 175.108ZM441.815 174.97C441.876 173.314 441.585 171.934 440.941 170.83C440.328 169.695 439.469 168.867 438.365 168.346C437.292 167.794 436.111 167.518 434.823 167.518C432.768 167.518 431.051 168.147 429.671 169.404C428.291 170.661 427.54 172.517 427.417 174.97H441.815ZM474.771 158.41C472.717 158.318 471.275 158.655 470.447 159.422C469.619 160.158 469.205 161.431 469.205 163.24V163.654H474.771V168.162H469.205V189H463.915V168.162H460.465V163.654H463.915V162.826C463.915 159.729 464.82 157.413 466.629 155.88C468.439 154.316 471.153 153.626 474.771 153.81V158.41ZM478.251 156.294C478.251 155.405 478.557 154.669 479.171 154.086C479.784 153.503 480.597 153.212 481.609 153.212C482.621 153.212 483.433 153.503 484.047 154.086C484.691 154.669 485.013 155.405 485.013 156.294C485.013 157.183 484.691 157.904 484.047 158.456C483.433 159.008 482.621 159.284 481.609 159.284C480.597 159.284 479.784 159.008 479.171 158.456C478.557 157.904 478.251 157.183 478.251 156.294ZM484.231 163.654V189H478.987V163.654H484.231ZM504.744 163.24C507.688 163.24 510.05 164.191 511.828 166.092C513.607 167.993 514.496 170.707 514.496 174.234V189H509.252V174.786C509.252 172.517 508.67 170.769 507.504 169.542C506.339 168.285 504.744 167.656 502.72 167.656C500.635 167.656 498.964 168.331 497.706 169.68C496.449 170.999 495.82 172.946 495.82 175.522V189H490.576V163.654H495.82V169.22C496.495 167.319 497.63 165.847 499.224 164.804C500.819 163.761 502.659 163.24 504.744 163.24ZM530.795 163.332C533.095 163.332 535.058 163.899 536.683 165.034C538.308 166.169 539.458 167.671 540.133 169.542V163.654H545.377V189H540.133V183.112C539.458 184.983 538.308 186.485 536.683 187.62C535.058 188.755 533.095 189.322 530.795 189.322C528.587 189.322 526.609 188.801 524.861 187.758C523.144 186.715 521.794 185.213 520.813 183.25C519.832 181.287 519.341 178.972 519.341 176.304C519.341 173.667 519.832 171.367 520.813 169.404C521.794 167.441 523.144 165.939 524.861 164.896C526.609 163.853 528.587 163.332 530.795 163.332ZM532.405 167.932C530.074 167.932 528.204 168.683 526.793 170.186C525.413 171.658 524.723 173.697 524.723 176.304C524.723 178.911 525.413 180.965 526.793 182.468C528.204 183.94 530.074 184.676 532.405 184.676C533.877 184.676 535.196 184.339 536.361 183.664C537.526 182.959 538.446 181.977 539.121 180.72C539.796 179.463 540.133 177.991 540.133 176.304C540.133 174.648 539.796 173.191 539.121 171.934C538.446 170.646 537.526 169.665 536.361 168.99C535.196 168.285 533.877 167.932 532.405 167.932ZM565.838 163.24C568.782 163.24 571.143 164.191 572.922 166.092C574.701 167.993 575.59 170.707 575.59 174.234V189H570.346V174.786C570.346 172.517 569.763 170.769 568.598 169.542C567.433 168.285 565.838 167.656 563.814 167.656C561.729 167.656 560.057 168.331 558.8 169.68C557.543 170.999 556.914 172.946 556.914 175.522V189H551.67V163.654H556.914V169.22C557.589 167.319 558.723 165.847 560.318 164.804C561.913 163.761 563.753 163.24 565.838 163.24ZM592.993 163.332C596.274 163.332 598.988 164.206 601.135 165.954C603.281 167.671 604.615 170.017 605.137 172.992H599.571C599.264 171.397 598.513 170.155 597.317 169.266C596.151 168.346 594.679 167.886 592.901 167.886C590.877 167.886 589.19 168.607 587.841 170.048C586.491 171.459 585.817 173.544 585.817 176.304C585.817 179.064 586.491 181.165 587.841 182.606C589.19 184.047 590.877 184.768 592.901 184.768C594.679 184.768 596.151 184.308 597.317 183.388C598.513 182.468 599.264 181.211 599.571 179.616H605.137C604.615 182.591 603.281 184.952 601.135 186.7C598.988 188.448 596.274 189.322 592.993 189.322C590.539 189.322 588.362 188.801 586.461 187.758C584.59 186.715 583.118 185.213 582.045 183.25C580.971 181.287 580.435 178.972 580.435 176.304C580.435 173.667 580.971 171.367 582.045 169.404C583.118 167.441 584.59 165.939 586.461 164.896C588.362 163.853 590.539 163.332 592.993 163.332ZM633.755 175.108C633.755 175.967 633.694 176.718 633.571 177.362H614.067C614.159 179.969 614.88 181.901 616.229 183.158C617.579 184.415 619.25 185.044 621.243 185.044C622.991 185.044 624.463 184.599 625.659 183.71C626.886 182.821 627.637 181.64 627.913 180.168H633.525C633.188 181.947 632.483 183.526 631.409 184.906C630.336 186.286 628.941 187.375 627.223 188.172C625.506 188.939 623.589 189.322 621.473 189.322C619.02 189.322 616.843 188.801 614.941 187.758C613.071 186.715 611.599 185.213 610.525 183.25C609.452 181.287 608.915 178.972 608.915 176.304C608.915 173.667 609.452 171.367 610.525 169.404C611.599 167.441 613.071 165.939 614.941 164.896C616.843 163.853 619.02 163.332 621.473 163.332C623.957 163.332 626.119 163.853 627.959 164.896C629.83 165.908 631.256 167.319 632.237 169.128C633.249 170.907 633.755 172.9 633.755 175.108ZM628.465 174.97C628.527 173.314 628.235 171.934 627.591 170.83C626.978 169.695 626.119 168.867 625.015 168.346C623.942 167.794 622.761 167.518 621.473 167.518C619.419 167.518 617.701 168.147 616.321 169.404C614.941 170.661 614.19 172.517 614.067 174.97H628.465ZM638.083 156.294C638.083 155.405 638.389 154.669 639.003 154.086C639.616 153.503 640.429 153.212 641.441 153.212C642.453 153.212 643.265 153.503 643.879 154.086C644.523 154.669 644.845 155.405 644.845 156.294C644.845 157.183 644.523 157.904 643.879 158.456C643.265 159.008 642.453 159.284 641.441 159.284C640.429 159.284 639.616 159.008 639.003 158.456C638.389 157.904 638.083 157.183 638.083 156.294ZM644.063 163.654V189H638.819V163.654H644.063ZM655.652 168.622C656.511 166.966 657.738 165.663 659.332 164.712C660.927 163.731 662.767 163.24 664.852 163.24V168.944H663.288C660.988 168.944 659.133 169.511 657.722 170.646C656.342 171.75 655.652 173.59 655.652 176.166V189H650.408V163.654H655.652V168.622ZM680.373 163.332C682.827 163.332 685.035 163.853 686.997 164.896C688.96 165.939 690.493 167.441 691.597 169.404C692.701 171.367 693.253 173.667 693.253 176.304C693.253 178.972 692.701 181.287 691.597 183.25C690.493 185.213 688.96 186.715 686.997 187.758C685.035 188.801 682.827 189.322 680.373 189.322C677.92 189.322 675.712 188.801 673.749 187.758C671.817 186.715 670.284 185.213 669.149 183.25C668.045 181.257 667.493 178.941 667.493 176.304C667.493 173.667 668.045 171.367 669.149 169.404C670.284 167.441 671.817 165.939 673.749 164.896C675.712 163.853 677.92 163.332 680.373 163.332ZM680.373 167.886C679.024 167.886 677.782 168.193 676.647 168.806C675.513 169.419 674.593 170.37 673.887 171.658C673.213 172.915 672.875 174.464 672.875 176.304C672.875 178.175 673.213 179.739 673.887 180.996C674.593 182.253 675.513 183.189 676.647 183.802C677.782 184.415 679.024 184.722 680.373 184.722C681.723 184.722 682.965 184.415 684.099 183.802C685.234 183.189 686.139 182.253 686.813 180.996C687.519 179.739 687.871 178.175 687.871 176.304C687.871 174.464 687.519 172.915 686.813 171.658C686.139 170.37 685.234 169.419 684.099 168.806C682.965 168.193 681.723 167.886 680.373 167.886ZM702.435 183.204V189H696.501V183.204H702.435Z" fill="white"/>
</svg>
