<svg width="748" height="551" viewBox="0 0 748 551" fill="none" xmlns="http://www.w3.org/2000/svg">
<g clip-path="url(#clip0_7_2186)">
<path d="M327.585 337.905L246.4 337.905L246.4 546.406L327.585 546.406L327.585 337.905Z" fill="#E9944A" fill-opacity="0.37"/>
<path d="M453.897 269.748L372.712 269.748L372.712 546.406L453.897 546.406L453.897 269.748Z" fill="#E9944A" fill-opacity="0.37"/>
<path d="M576.454 196.19L487.554 196.19L487.554 546.389L576.454 546.389L576.454 196.19Z" fill="#E9944A" fill-opacity="0.37"/>
<path d="M689.307 147.717L608.122 147.717L608.122 546.406L689.307 546.406L689.307 147.717Z" fill="#E9944A" fill-opacity="0.37"/>
<path d="M576.454 312.906L747.087 230.294L670.995 392.517L658.119 318.924L576.454 312.906Z" fill="#E47B4D"/>
<path d="M690.112 326.657C647.968 360.967 597.475 387.356 540.054 405.051C493.4 419.437 441.723 428.233 386.429 431.234C371.358 432.057 356.664 432.417 342.536 432.417C313.954 432.417 287.601 430.959 264.626 428.936L273.919 384.955C305.587 387.544 343.427 388.882 384.285 386.67C436.323 383.858 484.776 375.61 528.309 362.202C580.689 346.05 626.502 322.182 664.48 291.267L690.13 326.64L690.112 326.657Z" fill="#E47B4D"/>
<path d="M375.901 238.97C370.038 235.935 365.34 237.839 365.34 237.839C347.405 235.73 342.176 256.648 342.416 263.833C342.656 271.034 343.479 278.75 335.472 288.112C312.342 315.118 360.779 316.301 360.779 316.301C361.19 294.731 387.046 302.601 385.914 304.778C419.057 312.734 389.206 245.88 375.884 238.953L375.901 238.97Z" fill="#A27D56"/>
<path d="M306.736 328.904C306.736 328.904 303.581 324.102 301.043 324.017C298.506 323.914 293.791 322.611 294.168 323.554C294.545 324.497 297.46 324.583 297.751 325.148C298.026 325.714 293.414 326.554 292.11 326.657C290.79 326.76 287.687 326.657 287.773 327.309C287.858 327.96 293.379 330.704 297.254 330.327C301.146 329.949 305.93 331.458 305.93 331.458L306.736 328.921L306.736 328.904Z" fill="#EEAD7F"/>
<path d="M352.343 330.464C352.343 330.464 350.629 333.859 347.525 337.751C343.77 342.449 337.992 347.867 330.74 348.931C327.276 349.445 323.881 348.691 320.778 347.319C311.965 343.409 305.347 334.408 305.347 334.408C303.787 330.172 306.341 327.292 306.341 327.292C306.341 327.292 324.138 331.287 325.819 330.447C327.516 329.606 337.392 301.126 339.741 297.543C342.09 293.959 350.114 292.107 350.114 292.107L352.36 330.447L352.343 330.464Z" fill="#E9944A"/>
<path d="M347.525 337.751C343.77 342.449 337.992 347.867 330.74 348.931C327.276 349.445 323.881 348.69 320.778 347.319C321.121 347.37 329.917 348.45 333.431 342.175C337.015 335.779 340.873 325.611 346.188 328.989C348.485 330.447 348.382 334.082 347.525 337.751Z" fill="#E47D3A"/>
<path d="M418.714 522.504C418.714 522.504 424.149 527.459 423.086 530.975C422.023 534.49 417.136 536.839 416.468 541.142C415.799 545.446 413.159 547.795 410.775 547.795L399.408 547.795C399.408 547.795 397.659 544.76 401.894 543.851C406.129 542.943 407.724 537.885 407.466 533.186C407.209 528.488 407.861 522.23 407.861 522.23L416.862 520.138L418.714 522.487L418.714 522.504Z" fill="#385A9F"/>
<path d="M372.764 524.596C372.764 524.596 374.718 545.583 372.335 546.749L341.833 546.681C341.833 546.681 341.833 543.166 346.737 542.377C351.64 541.588 360.247 538.725 361.705 532.346C363.162 525.951 372.781 524.596 372.781 524.596L372.764 524.596Z" fill="#2B488B"/>
<path d="M394.504 374.033C388.229 359.956 384.388 355.909 385.126 351.554C385.674 348.296 383.462 290.924 383.462 290.924C382.725 290.701 381.234 290.478 380.411 290.307C377.839 289.741 375.713 287.923 374.821 285.437C373.758 282.454 372.901 278.03 372.918 272.492L372.112 272.646L358.601 275.321C358.601 275.321 358.91 279.573 358.91 283.585C358.91 283.62 358.91 283.654 358.91 283.688C358.91 287.169 356.647 290.238 353.303 291.198C351.589 291.696 350.114 292.107 350.114 292.107C350.114 292.107 345.142 306.287 344.199 320.845C343.256 335.402 353.218 341.729 344.13 370.827C334.837 400.541 397.985 381.8 394.521 374.033L394.504 374.033Z" fill="#EEAD7F"/>
<path d="M358.584 275.338C358.584 275.338 358.893 279.59 358.893 283.603C366.454 283.397 370.449 276.487 372.095 272.663L358.584 275.338Z" fill="#E9955C"/>
<path d="M356.064 279.127C356.064 279.127 373.964 279.419 373.981 268.274C373.981 257.128 376.313 249.653 364.877 249.001C353.458 248.349 351.229 252.585 350.32 256.305C349.411 260.026 351.417 278.767 356.064 279.127Z" fill="#EEAD7F"/>
<path d="M356.732 248.727C356.732 248.727 361.636 261.809 369.146 263.747C376.673 265.684 379.93 263.661 379.93 263.661C379.93 263.661 374.17 259.083 372.969 251.076C372.969 251.076 360.436 242.502 356.732 248.727Z" fill="#A27D56"/>
<path d="M357.933 249.79C357.933 249.79 354.298 251.144 352.806 253.802C351.349 256.391 350.097 259.82 350.389 264.038C350.389 264.038 346.702 255.139 350.852 250.115C355.258 244.783 357.95 249.79 357.95 249.79L357.933 249.79Z" fill="#A27D56"/>
<path d="M359.956 272.217C359.956 272.217 358.721 273.846 356.252 273.726C354.263 273.623 353.492 271.909 353.492 271.909C353.492 271.909 357.144 271.034 359.956 272.217Z" fill="#ECF3FA"/>
<path d="M396.219 316.301C396.219 316.301 396.665 322.714 396.219 330.395C395.91 335.488 390.767 342.312 390.029 344.009C388.195 348.245 386.12 348.93 386.12 348.93L370.106 352.857L364.482 354.229L346.719 348.93C346.719 348.93 338.627 326.349 341.884 313.643C345.125 300.938 350.097 292.107 350.097 292.107C350.097 292.107 364.585 306.287 383.445 290.907L396.219 316.284L396.219 316.301Z" fill="#E9944A"/>
<path d="M347.868 352.36C347.868 352.36 339.072 379.725 338.507 389.053C337.941 398.364 355.309 521.441 356.012 525.728C356.664 529.774 361.705 532.363 361.705 532.363C361.705 532.363 364.019 533.735 367.311 532.792C371.889 531.506 373.329 529.946 373.329 529.946C373.329 529.946 380.171 442.173 375.936 410.829C371.701 379.485 371.649 352.36 371.649 352.36L347.851 352.36L347.868 352.36Z" fill="#233963"/>
<path d="M385.108 351.554C385.108 351.554 398.516 369.558 399.768 381.714C401.02 393.888 401.723 436.617 404.397 448.483C407.055 460.348 416.845 483.17 416.845 520.155C416.845 520.155 415.833 522.281 412.679 523.413C411.667 523.773 410.33 524.116 409.027 524.424C406.438 525.025 403.78 523.756 402.597 521.372C395.979 508.05 374.907 465.081 373.827 456.164C373.055 449.855 366.403 408.069 351.897 383.549C348.417 377.668 354.041 354.263 354.041 354.263L385.126 351.571L385.108 351.554Z" fill="#2B488B"/>
<path d="M359.561 272.509C359.561 272.509 359.253 273.829 355.978 273.623C355.978 273.623 353.235 273.452 353.32 272.012C353.32 272.012 355.978 270.983 359.561 272.509Z" fill="white"/>
<path d="M346.462 348.142C346.462 348.142 349.994 350.937 357.007 351.074C365.391 351.245 386.137 348.931 386.137 348.931C386.137 348.931 387.063 351.502 387.029 354.229C387.029 354.229 361.688 360.624 346.994 355.155C346.994 355.155 345.108 351.588 346.479 348.125L346.462 348.142Z" fill="#233963"/>
<path d="M354.984 358.293C352.875 358.293 351.16 356.355 351.16 353.972C351.16 351.588 352.875 349.651 354.984 349.651C357.093 349.651 358.807 351.588 358.807 353.972C358.807 356.355 357.093 358.293 354.984 358.293ZM354.984 350.902C353.578 350.902 352.429 352.274 352.429 353.955C352.429 355.635 353.578 357.007 354.984 357.007C356.39 357.007 357.538 355.635 357.538 353.955C357.538 352.274 356.39 350.902 354.984 350.902Z" fill="white"/>
<path d="M382.455 317.531L356.491 340.141L387.445 375.688L413.408 353.077L382.455 317.531Z" fill="#B5473C"/>
<path d="M380.273 353.183C380.273 353.183 370.758 354.297 370.792 356.561C370.826 358.824 373.158 363.454 374.341 363.659C375.524 363.865 382.091 357.384 382.091 357.384L380.291 353.183L380.273 353.183Z" fill="#EEAD7F"/>
<path d="M383.463 290.924C383.463 290.924 396.167 291.816 401.037 303.647C405.906 315.478 415.148 335.368 415.148 338.711C415.148 342.055 409.987 352.36 382.262 358.293C382.262 358.293 379.399 355.275 379.57 352.891C379.57 352.891 396.87 338.025 396.819 336.294C396.733 333.001 393.99 328.663 378.799 313.472C374.667 309.339 383.463 290.924 383.463 290.924Z" fill="#E9944A"/>
<path d="M108.652 547.761L108.532 547.761C107.795 547.761 107.195 547.161 107.212 546.406L109.218 459.817L115.099 459.131L110.075 546.423C110.024 547.178 109.406 547.761 108.652 547.761Z" fill="#9ABEE2"/>
<path d="M203.279 547.761L203.399 547.761C204.136 547.761 204.736 547.161 204.719 546.406L202.713 459.817L196.832 459.131L201.856 546.423C201.907 547.178 202.525 547.761 203.279 547.761Z" fill="#B5D2ED"/>
<path d="M104.743 454.45L104.743 395.106C104.743 384.664 113.213 376.193 123.654 376.193L166.399 376.193C176.84 376.193 185.31 384.664 185.31 395.106L185.31 456.713L104.76 454.45L104.743 454.45Z" fill="#B5D2ED"/>
<path d="M104.743 454.45L192.957 454.45L192.957 463.812L110.418 463.812C107.28 463.812 104.743 461.274 104.743 458.136L104.743 454.45Z" fill="#9ABEE2"/>
<path d="M202.85 454.45L140.406 454.45C138.086 454.45 136.205 456.331 136.205 458.651L136.205 459.611C136.205 461.931 138.086 463.812 140.406 463.812L202.85 463.812C205.17 463.812 207.051 461.931 207.051 459.611L207.051 458.651C207.051 456.331 205.17 454.45 202.85 454.45Z" fill="#B5D2ED"/>
<path d="M200.433 439.67C194.312 450.335 186.613 454.45 186.613 454.45L154.568 454.45C154.568 454.45 205.113 431.542 200.433 439.67Z" fill="#233963"/>
<path d="M175.812 522.144C174.971 523.104 174.869 524.167 175.28 525.316C176.052 527.425 178.572 529.792 181.504 532.141C181.881 532.449 182.207 532.724 182.498 532.981C182.567 533.049 182.653 533.118 182.721 533.186C182.773 533.238 182.841 533.289 182.893 533.341C185.636 535.861 184.59 536.444 189.511 541.554C195.118 547.384 198.975 547.487 200.073 546.955C200.998 546.509 199.112 543.406 197.021 539.942C196.918 539.771 196.815 539.599 196.712 539.428C196.438 538.965 196.163 538.502 195.889 538.039C193.437 533.855 194.072 531.9 194.655 525.676C195.135 520.618 202.524 497.419 202.524 497.419L191.791 495.567C191.791 495.567 188.551 514.034 185.002 516.88C183.098 518.389 180.972 518.423 179.138 519.538C179.001 519.624 178.881 519.692 178.761 519.778C177.715 520.464 176.652 521.184 175.829 522.144L175.812 522.144Z" fill="#EEAD7F"/>
<path d="M175.812 522.144C174.971 523.104 174.869 524.167 175.28 525.316C176.223 527.425 178.675 529.774 181.521 532.123C181.898 532.432 182.224 532.706 182.515 532.981C182.584 533.049 182.67 533.118 182.738 533.186C182.79 533.238 182.858 533.289 182.91 533.341C185.653 535.861 184.607 536.444 189.528 541.554C195.135 547.384 198.992 547.487 200.09 546.955C201.016 546.509 199.13 543.406 197.038 539.942C195.941 539.548 190.883 537.49 187.042 532.586C183.664 528.283 181.418 522.744 179.121 519.538C178.983 519.624 178.863 519.692 178.743 519.778C177.698 520.464 176.634 521.184 175.812 522.144Z" fill="#233963"/>
<path d="M262.397 515.423C263.066 518.732 267.781 518.183 273.062 516.897C278.343 515.611 277.091 517.137 284.601 516.314C292.111 515.474 294.391 512.679 294.614 511.565C294.82 510.57 291.099 510.227 287.121 509.764C286.624 509.713 286.11 509.644 285.612 509.593C281.12 509.027 277.828 506.129 273.748 503.746C269.873 501.483 264.112 492.292 264.112 492.292L253.807 493.115C253.807 493.115 259.208 501.328 261.3 504.895C262.534 506.987 262.466 509.764 262.311 511.908C262.226 513.074 262.157 514.257 262.397 515.44L262.397 515.423Z" fill="#EEAD7F"/>
<path d="M273.062 516.897C278.343 515.611 277.091 517.137 284.601 516.314C292.111 515.474 294.391 512.679 294.614 511.565C294.82 510.57 291.099 510.227 287.121 509.764L287.087 509.833C287.087 509.833 282.578 513.022 276.337 513.176C271.244 513.296 265.843 511.839 262.329 511.89C262.243 513.056 262.174 514.24 262.414 515.423C263.083 518.732 267.798 518.183 273.079 516.897L273.062 516.897Z" fill="#233963"/>
<path d="M222.911 449.546L213.275 475.454L200.707 509.301C200.707 509.301 197.295 509.627 194.02 508.684C191.02 507.81 187.556 505.546 187.556 505.546C187.556 505.546 191.054 469.213 197.552 448.363C199.215 443.013 201.084 438.675 203.159 436.24C213.258 424.306 222.893 449.546 222.893 449.546L222.911 449.546Z" fill="#233963"/>
<path d="M213.121 408.394C206.811 406.354 188.808 408.977 170.736 412.51L166.947 406.268L127.907 403.216C127.907 403.216 115.03 431.782 122.077 449.992C123.106 452.667 125.18 454.381 128.678 454.433L129.244 454.433C129.244 454.433 152.476 454.433 160.02 454.433C179.446 454.433 201.119 441.093 203.913 440.527C208.508 439.601 210.343 448.791 214.938 458.428C219.533 468.064 258.076 501.122 258.076 501.122C258.076 501.122 264.009 501.174 266.443 500.265C269.084 499.271 270.044 498.002 270.044 498.002C270.044 498.002 227.317 413.007 213.103 408.412L213.121 408.394Z" fill="#2B488B"/>
<path d="M165.421 292.57C160.414 289.947 152.802 289.587 151.567 289.415C136.77 287.426 127.872 308.928 127.34 315.444C126.38 327.446 120.019 329.281 111.086 336.808C93.1519 351.88 98.4156 369.403 108.223 375.919C114.104 379.828 124.477 375.919 124.477 375.919C124.631 376.022 152.836 360.144 166.741 352.497C187.59 349.531 178.177 299.274 165.438 292.57L165.421 292.57Z" fill="#6F4E2F"/>
<path d="M155.082 345.981C155.082 345.981 148.241 348.382 143.629 346.341C139.291 344.421 135.999 337.271 136.068 337.271C138.04 337.185 140.217 335.453 141.88 324.12L142.72 324.428L156.866 329.521C156.866 329.521 155.837 334.065 155.185 338.385C154.62 342.021 154.328 345.484 155.1 345.999L155.082 345.981Z" fill="#EEAD7F"/>
<path d="M156.848 329.504C156.848 329.504 155.82 334.047 155.168 338.368C147.041 336.911 143.852 328.818 142.72 324.428L156.866 329.521L156.848 329.504Z" fill="#E9965F"/>
<path d="M158.957 334.013C158.957 334.013 139.617 331.424 141.417 319.387C143.218 307.368 141.932 298.931 154.362 300.08C166.793 301.229 168.49 306.184 168.868 310.334C169.245 314.501 164.032 334.373 158.957 334.013Z" fill="#EEAD7F"/>
<path d="M168.165 303.75C168.165 303.75 155.785 314.432 147.35 315.289C138.931 316.147 135.742 313.437 135.742 313.437C135.742 313.437 140.714 309.322 143.698 302.652C144.572 300.698 146.441 299.343 148.584 299.154C154.602 298.64 166.004 298.4 168.165 303.733L168.165 303.75Z" fill="#6F4E2F"/>
<path d="M160.415 302.789C160.415 302.789 164.564 306.802 165.867 309.768C167.119 312.632 167.496 319.49 166.502 322.216C166.502 322.216 172.965 309.665 169.296 303.561C165.421 297.097 160.415 302.789 160.415 302.789Z" fill="#6F4E2F"/>
<path d="M171.371 374.479C170.788 413.641 171.217 405.462 166.93 409.183C165.901 410.075 163.004 410.606 159.18 410.864C147.178 411.669 126.055 409.681 125.266 407.469C122.489 399.787 124.443 397.404 122.146 385.641C121.906 384.389 121.614 383.035 121.254 381.56C119.334 373.484 117.448 370.741 124.289 357.761C130.496 346.016 136.925 336.465 137.508 336.808C153.865 346.513 155.185 338.351 155.185 338.351C155.185 338.351 171.68 355.361 171.388 374.462L171.371 374.479Z" fill="#8E98C8"/>
<path d="M213.292 475.471L200.724 509.319C200.724 509.319 197.312 509.644 194.037 508.701C191.037 507.827 187.573 505.563 187.573 505.563C187.573 505.563 191.071 469.23 197.569 448.38L213.275 475.489L213.292 475.471Z" fill="#2B488B"/>
<path d="M155.168 338.368C155.168 338.368 172.005 341.215 173.977 348.468C175.949 355.721 187.591 398.312 187.591 398.312C187.591 398.312 179.035 399.856 175.074 395.895C171.114 391.934 161.323 359.218 161.323 359.218L155.168 338.351L155.168 338.368Z" fill="#8E98C8"/>
<path d="M159.163 410.864C147.161 411.669 126.038 409.68 125.249 407.469C122.471 399.787 124.426 397.404 122.129 385.641L127.924 369.335C127.924 369.335 126.964 387.493 132.33 392.277C137.68 397.061 154.259 401.502 156.866 405.497C158.117 407.417 158.94 409.338 159.18 410.881L159.163 410.864Z" fill="#6C7BB6"/>
<path d="M145.412 403.216C145.412 403.216 157.26 400.576 159.163 401.622C161.066 402.668 165.747 406.508 166.33 407.829C166.913 409.166 162.078 406.817 160.5 406.388C159.489 406.114 156.797 407.04 155.46 407.486C149.87 409.355 146.441 408.394 146.441 408.394L145.395 403.199L145.412 403.216Z" fill="#EEAD7F"/>
<path d="M137.474 336.808C137.474 336.808 121.563 337.785 116.059 345.467C108.309 356.286 92.9295 402.359 101.742 408.515C111.67 415.442 146.921 410.332 146.921 410.332C146.921 410.332 148.087 404.845 146.458 402.205C144.829 399.547 118.305 395.26 117.088 394.043C115.87 392.825 132.382 370.175 132.382 366.506C132.382 362.836 137.474 336.825 137.474 336.825L137.474 336.808Z" fill="#8E98C8"/>
<path d="M159.746 404.931C159.746 404.931 162.232 408.137 163.038 408.515C163.844 408.892 164.375 408.806 164.375 408.806L162.695 405.788L159.729 404.931L159.746 404.931Z" fill="#EEAD7F"/>
<path d="M159.163 401.639L166.381 405.137C166.381 405.137 166.073 405.634 165.181 405.6C164.29 405.565 162.044 404.742 162.044 404.742L159.146 401.639L159.163 401.639Z" fill="#EEAD7F"/>
<path d="M160.432 413.418L221.316 413.418L239.645 370.707L178.846 370.707L160.432 413.418Z" fill="#E47B4D"/>
<path d="M222.036 410.658L141.623 410.658L141.623 413.35L221.316 413.35L222.036 410.658Z" fill="#E47B4D"/>
<path d="M205.954 392.071C206.417 390.562 205.491 389.345 203.879 389.345C202.267 389.345 200.604 390.562 200.141 392.071C199.678 393.58 200.604 394.797 202.216 394.797C203.828 394.797 205.491 393.58 205.954 392.071Z" fill="#ECF3FA"/>
<path d="M311.348 548.944L311.519 548.944C312.497 548.944 313.285 548.052 313.268 546.972L310.628 420.62L302.844 419.625L309.479 546.989C309.53 548.087 310.353 548.944 311.365 548.944L311.348 548.944Z" fill="#233963"/>
<path d="M147.298 548.944L147.127 548.944C146.15 548.944 145.361 548.052 145.378 546.972L148.018 420.62L155.803 419.625L149.167 546.989C149.116 548.087 148.293 548.944 147.281 548.944L147.298 548.944Z" fill="#233963"/>
<path d="M314.434 413.418L137.131 413.418C135.568 413.418 134.302 414.685 134.302 416.247L134.302 419.625C134.302 421.188 135.568 422.455 137.131 422.455L314.434 422.455C315.997 422.455 317.263 421.188 317.263 419.625L317.263 416.247C317.263 414.685 315.997 413.418 314.434 413.418Z" fill="#233963"/>
<path d="M697.777 548.378L0.994423 548.378C0.51149 548.378 0.119995 548.77 0.119995 549.253L0.119995 549.801C0.119995 550.284 0.51149 550.676 0.994423 550.676L697.777 550.676C698.26 550.676 698.651 550.284 698.651 549.801L698.651 549.253C698.651 548.77 698.26 548.378 697.777 548.378Z" fill="#2E3652"/>
</g>
<defs>
<clipPath id="clip0_7_2186">
<rect width="747.088" height="550.676" fill="white"/>
</clipPath>
</defs>
</svg>
